<svg width="107" height="21" viewBox="0 0 107 21" fill="none" xmlns="http://www.w3.org/2000/svg">
<path d="M10.1333 0L12.4084 7.00196H19.7707L13.8145 11.3294L16.0896 18.3314L10.1333 14.0039L4.17711 18.3314L6.45218 11.3294L0.49596 7.00196H7.85826L10.1333 0Z" fill="#F1CB2F"/>
<path d="M31.6667 0L33.9418 7.00196H41.3041L35.3478 11.3294L37.6229 18.3314L31.6667 14.0039L25.7105 18.3314L27.9855 11.3294L22.0293 7.00196H29.3916L31.6667 0Z" fill="#F1CB2F"/>
<path d="M53.2 0L55.4751 7.00196H62.8374L56.8812 11.3294L59.1562 18.3314L53.2 14.0039L47.2438 18.3314L49.5189 11.3294L43.5626 7.00196H50.9249L53.2 0Z" fill="#F1CB2F"/>
<path d="M74.7333 0L77.0084 7.00196H84.3707L78.4145 11.3294L80.6896 18.3314L74.7333 14.0039L68.7771 18.3314L71.0522 11.3294L65.096 7.00196H72.4583L74.7333 0Z" fill="#F1CB2F"/>
<path d="M96.2667 0L98.5417 7.00196H105.904L99.9478 11.3294L102.223 18.3314L96.2667 14.0039L90.3104 18.3314L92.5855 11.3294L86.6293 7.00196H93.9916L96.2667 0Z" fill="#F1CB2F"/>
</svg>
