<svg width="528" height="528" viewBox="0 0 528 528" fill="none" xmlns="http://www.w3.org/2000/svg">
<rect width="528" height="528" rx="24" fill="#F3F4F6"/>
<circle cx="264" cy="264" r="209" fill="#F3F4F6"/>
<path d="M69.1662 154.902C70.7669 154.902 72.2995 155.276 73.6447 155.958C73.6277 155.6 73.6107 155.259 73.6107 154.902C73.6107 143.867 82.5507 134.927 93.5852 134.927C94.7091 134.927 95.8159 135.03 96.8887 135.2C100.72 121.611 113.202 111.632 128.017 111.632C140.312 111.632 151.022 118.495 156.489 128.61C160.235 126.379 164.611 125.102 169.294 125.102C183.155 125.102 194.377 136.324 194.377 150.185C194.377 159.806 188.962 168.167 181.01 172.373H157.561H143.513H112.521H103.24H83.913H75.7563H62.5762C60.8733 170.875 59.6984 168.814 59.3237 166.481C59.2386 165.953 59.1875 165.426 59.1875 164.881C59.1875 159.38 63.649 154.902 69.1662 154.902Z" fill="white" stroke="#030712" stroke-width="0.851428" stroke-miterlimit="10" stroke-linecap="round" stroke-linejoin="round"/>
<path d="M422.576 187.273C422.406 182.079 426.22 179.15 430.698 179.15C431.158 179.15 431.601 179.185 432.044 179.27C433.593 173.735 438.685 169.683 444.713 169.683C449.719 169.683 454.079 172.475 456.292 176.596C457.825 175.694 459.596 175.166 461.503 175.166C467.14 175.166 471.72 179.729 471.72 185.383C471.72 189.3 469.507 192.705 466.271 194.408H456.735H451.013H438.395H434.615H426.748C426.782 194.374 422.746 192.211 422.576 187.273Z" fill="white" stroke="#030712" stroke-width="0.851428" stroke-miterlimit="10" stroke-linecap="round" stroke-linejoin="round"/>
<path d="M289.789 85.8343C289.942 81.0663 286.451 78.3588 282.313 78.3588C281.887 78.3588 281.479 78.3928 281.087 78.4609C279.657 73.3694 274.991 69.6401 269.439 69.6401C264.842 69.6401 260.84 72.2114 258.797 75.9918C257.4 75.1574 255.766 74.6806 254.012 74.6806C248.835 74.6806 244.629 78.8866 244.629 84.0633C244.629 87.6563 246.655 90.7896 249.635 92.3562H258.405H263.667H275.263H278.737H285.974C285.94 92.3733 289.652 90.3979 289.789 85.8343Z" fill="white" stroke="#030712" stroke-width="0.851428" stroke-miterlimit="10" stroke-linecap="round" stroke-linejoin="round"/>
<path d="M69.5254 471.48C60.5172 461.91 55 449.036 55 434.851C55 405.341 78.9251 381.416 108.436 381.416C116.252 381.416 123.693 383.101 130.385 386.116C130.351 385.179 130.334 384.242 130.334 383.289C130.334 338.078 166.997 301.416 212.208 301.416C256.516 301.416 292.599 336.614 294.03 380.581C299.7 374.877 307.55 371.335 316.235 371.335C325.328 371.335 333.519 375.217 339.241 381.416C350.139 363.587 369.79 351.701 392.216 351.701C426.495 351.701 454.285 379.491 454.285 413.77C454.285 439.977 438.04 462.386 415.069 471.497H69.5254V471.48Z" fill="white" stroke="#030712" stroke-width="0.851428" stroke-miterlimit="10" stroke-linecap="round" stroke-linejoin="round"/>
<path d="M170.895 337.09H367.574V112.058H250.741L246.229 112.45L201.699 132.084L174.726 167.043L170.895 180.598V337.09Z" fill="white" stroke="#030712" stroke-width="0.851428" stroke-miterlimit="10" stroke-linecap="round" stroke-linejoin="round"/>
<path d="M323.674 179.695H206.449V185.621H323.674V179.695Z" fill="#030712" stroke="#030712" stroke-width="0.851428" stroke-miterlimit="10" stroke-linecap="round" stroke-linejoin="round"/>
<path d="M289.668 190.525H206.449V196.451H289.668V190.525Z" fill="#030712" stroke="#030712" stroke-width="0.851428" stroke-miterlimit="10" stroke-linecap="round" stroke-linejoin="round"/>
<path d="M284.883 211.726H281.511H206.449V217.635H281.511H284.883H339.34V211.726H284.883Z" fill="white" stroke="#030712" stroke-width="0.851428" stroke-miterlimit="10" stroke-linecap="round" stroke-linejoin="round"/>
<path d="M254.129 222.557H249.685H206.449V228.466H249.685H254.129H315.159V222.557H254.129Z" fill="white" stroke="#030712" stroke-width="0.851428" stroke-miterlimit="10" stroke-linecap="round" stroke-linejoin="round"/>
<path d="M259.544 234.306H254.589H206.449V240.215H254.589H259.544H327.505V234.306H259.544Z" fill="white" stroke="#030712" stroke-width="0.851428" stroke-miterlimit="10" stroke-linecap="round" stroke-linejoin="round"/>
<path d="M170.895 182.301C170.895 157.763 194.36 112.126 251.286 112.126C251.286 112.126 217.791 115.839 218.626 153.472C218.643 153.455 180.771 145.571 170.895 182.301Z" fill="#030712" stroke="#030712" stroke-width="0.851428" stroke-miterlimit="10" stroke-linecap="round" stroke-linejoin="round"/>
<path d="M124.883 425.656L379.375 442.14V393.472L124.883 425.656Z" fill="#030712" stroke="#030712" stroke-width="0.851428" stroke-miterlimit="10" stroke-linecap="round" stroke-linejoin="round"/>
<path d="M406.467 248.9H262.866L223.019 221.841H123.964C120.405 221.841 117.816 224.396 117.816 227.903V417.074C117.816 421.569 121.988 425.673 126.552 425.673H409.26C412.819 425.673 415.424 423.119 415.407 419.611L415.22 257.499C415.203 253.004 411.031 248.9 406.467 248.9Z" fill="white" stroke="#030712" stroke-width="0.851428" stroke-miterlimit="10" stroke-linecap="round" stroke-linejoin="round"/>
<path d="M205.141 460.769L421.574 468.449C428.64 464.651 434.907 459.509 439.998 453.378L432.795 431.65L205.141 460.769Z" fill="#030712" stroke="#030712" stroke-width="0.851428" stroke-miterlimit="10" stroke-linecap="round" stroke-linejoin="round"/>
<path d="M205.142 460.769C198.876 454.111 195.027 445.137 195.027 435.277C195.027 414.724 211.681 398.07 232.235 398.07C237.684 398.07 242.861 399.245 247.526 401.339C247.509 400.692 247.492 400.028 247.492 399.381C247.492 367.895 273.018 342.386 304.487 342.386C335.343 342.386 360.46 366.89 361.447 397.508C365.398 393.54 370.864 391.071 376.909 391.071C383.244 391.071 388.949 393.778 392.916 398.087C400.511 385.673 414.185 377.397 429.8 377.397C453.657 377.397 473.001 396.741 473.001 420.598C473.001 438.853 461.694 454.451 445.705 460.786H205.142V460.769Z" fill="white" stroke="#030712" stroke-width="0.851428" stroke-miterlimit="10" stroke-linecap="round" stroke-linejoin="round"/>
<path d="M428.967 240.573H375.838C373.028 240.573 370.746 242.855 370.746 245.664V264.685C370.746 267.495 373.028 269.777 375.838 269.777H397.873L402.402 274.306L406.932 269.777H428.967C431.776 269.777 434.058 267.495 434.058 264.685V245.664C434.058 242.838 431.776 240.573 428.967 240.573Z" fill="#030712" stroke="#030712" stroke-width="0.851428" stroke-miterlimit="10" stroke-linecap="round" stroke-linejoin="round"/>
<path d="M384.15 255.268C382.635 254.689 381.494 253.668 381.494 251.948C381.494 249.189 384.508 248.15 387.3 248.15C390.076 248.15 393.107 249.206 393.107 251.948C393.107 253.651 391.949 254.689 390.434 255.268C392.085 255.915 393.312 257.227 393.312 258.861C393.312 261.637 390.366 262.88 387.283 262.88C384.201 262.88 381.238 261.654 381.238 258.861C381.272 257.227 382.515 255.898 384.15 255.268ZM387.317 256.835C386.398 256.971 385.002 257.499 385.002 258.436C385.002 259.27 385.938 259.798 387.317 259.798C388.646 259.798 389.633 259.27 389.633 258.436C389.633 257.499 388.22 256.971 387.317 256.835ZM387.317 251.199C386.057 251.199 385.24 251.709 385.24 252.476C385.24 253.31 386.432 253.787 387.317 253.923C388.186 253.77 389.361 253.31 389.361 252.476C389.378 251.709 388.544 251.199 387.317 251.199Z" fill="white"/>
<path d="M396.751 258.334C397.739 259.253 399.118 259.747 400.498 259.747C402.064 259.747 402.83 258.913 402.83 257.993C402.83 256.988 402.081 256.256 400.6 256.256C399.459 256.256 398.573 256.597 397.773 257.329L395.236 256.716V248.355H405.589V251.454H398.795V254.383C399.612 253.702 400.719 253.225 401.979 253.225C404.414 253.225 406.577 254.979 406.577 257.84C406.577 260.922 404.244 262.863 400.549 262.863C398.028 262.863 396.121 262.097 394.793 260.786L396.751 258.334Z" fill="white"/>
<path d="M411.344 248.15C413.694 248.15 415.193 249.751 415.193 251.76C415.193 253.753 413.694 255.336 411.344 255.336C409.011 255.336 407.547 253.753 407.547 251.76C407.547 249.751 409.011 248.15 411.344 248.15ZM409.914 262.608L419.024 248.355H421.119L411.991 262.608H409.914ZM411.344 250.415C410.68 250.415 410.152 250.807 410.152 251.76C410.152 252.68 410.68 253.072 411.344 253.072C412.025 253.072 412.587 252.68 412.587 251.76C412.587 250.79 412.025 250.415 411.344 250.415ZM419.62 255.694C421.953 255.694 423.452 257.295 423.452 259.304C423.452 261.296 421.953 262.88 419.62 262.88C417.287 262.88 415.823 261.296 415.823 259.304C415.806 257.295 417.287 255.694 419.62 255.694ZM419.62 257.959C418.939 257.959 418.394 258.35 418.394 259.304C418.394 260.241 418.922 260.615 419.62 260.615C420.318 260.615 420.863 260.258 420.863 259.304C420.863 258.333 420.301 257.959 419.62 257.959Z" fill="white"/>
<path d="M446.353 214.383L447.102 224.123L456.416 226.592L446.233 229.078L442.044 238.802L441.295 229.078L431.98 226.592L442.164 224.123L446.353 214.383Z" fill="#030712"/>
<path d="M404.547 320.641L405.058 327.197L411.325 328.866L404.462 330.535L401.652 337.091L401.142 330.535L394.875 328.866L401.72 327.197L404.547 320.641Z" fill="#030712"/>
<path d="M85.3283 206.311C86.0776 212.203 89.875 216.818 95.4433 218.606C89.2279 220.394 83.8128 224.991 80.9861 230.9C80.2368 225.008 76.4394 220.394 70.8711 218.623C77.0865 216.818 82.5016 212.203 85.3283 206.311Z" fill="#030712"/>
<path d="M269.271 287.061C269.748 290.841 272.183 293.804 275.776 294.945C271.792 296.086 268.301 299.049 266.496 302.829C266.019 299.049 263.584 296.086 260.008 294.945C263.975 293.804 267.449 290.841 269.271 287.061Z" fill="#030712"/>
<path d="M423.958 64.4292C424.775 70.9171 428.947 75.9916 435.095 77.9499C428.266 79.9081 422.306 84.9827 419.19 91.4705C418.373 84.9997 414.201 79.9252 408.07 77.9669C414.882 75.9916 420.859 70.9171 423.958 64.4292Z" fill="#030712"/>
<path d="M302.51 137.686C302.986 141.466 305.422 144.429 309.015 145.57C305.03 146.711 301.539 149.674 299.734 153.454C299.257 149.674 296.822 146.711 293.246 145.57C297.214 144.429 300.705 141.466 302.51 137.686Z" fill="#030712"/>
<path d="M422.951 431.667C423.428 435.447 425.863 438.41 429.456 439.551C425.471 440.692 421.98 443.655 420.175 447.435C419.699 443.655 417.263 440.692 413.688 439.551C417.655 438.41 421.146 435.447 422.951 431.667Z" fill="#030712"/>
<path d="M321.974 376.358L324.477 391.36L331.101 393.472L324.477 395.583L321.974 410.585L319.47 395.583L312.863 393.472L319.47 391.36L321.974 376.358Z" fill="#030712"/>
<path d="M132.804 140.019L135.75 157.711L143.532 160.197L135.75 162.684L132.804 180.359L129.858 162.684L122.059 160.197L129.858 157.711L132.804 140.019Z" fill="#030712"/>
<path d="M456.55 282.48C458.666 282.48 460.382 280.764 460.382 278.648C460.382 276.532 458.666 274.817 456.55 274.817C454.434 274.817 452.719 276.532 452.719 278.648C452.719 280.764 454.434 282.48 456.55 282.48Z" fill="white" stroke="#030712" stroke-width="0.851428" stroke-miterlimit="10" stroke-linecap="round" stroke-linejoin="round"/>
<path d="M92.6692 442.599C94.3526 442.599 95.7173 441.234 95.7173 439.551C95.7173 437.868 94.3526 436.503 92.6692 436.503C90.9858 436.503 89.6211 437.868 89.6211 439.551C89.6211 441.234 90.9858 442.599 92.6692 442.599Z" fill="white" stroke="#030712" stroke-width="0.851428" stroke-miterlimit="10" stroke-linecap="round" stroke-linejoin="round"/>
<path d="M211.154 62.0962C212.837 62.0962 214.202 60.7315 214.202 59.0481C214.202 57.3647 212.837 56 211.154 56C209.47 56 208.105 57.3647 208.105 59.0481C208.105 60.7315 209.47 62.0962 211.154 62.0962Z" fill="white" stroke="#030712" stroke-width="0.851428" stroke-miterlimit="10" stroke-linecap="round" stroke-linejoin="round"/>
<path d="M252.126 440.573C253.81 440.573 255.174 439.208 255.174 437.525C255.174 435.841 253.81 434.477 252.126 434.477C250.443 434.477 249.078 435.841 249.078 437.525C249.078 439.208 250.443 440.573 252.126 440.573Z" fill="white" stroke="#030712" stroke-width="0.851428" stroke-miterlimit="10" stroke-linecap="round" stroke-linejoin="round"/>
<path d="M405.128 207.435C406.247 207.435 407.154 206.528 407.154 205.409C407.154 204.29 406.247 203.382 405.128 203.382C404.009 203.382 403.102 204.29 403.102 205.409C403.102 206.528 404.009 207.435 405.128 207.435Z" fill="white" stroke="#030712" stroke-width="0.851428" stroke-miterlimit="10" stroke-linecap="round" stroke-linejoin="round"/>
<path d="M197.683 384.736C198.802 384.736 199.709 383.829 199.709 382.71C199.709 381.591 198.802 380.684 197.683 380.684C196.563 380.684 195.656 381.591 195.656 382.71C195.656 383.829 196.563 384.736 197.683 384.736Z" fill="white" stroke="#030712" stroke-width="0.851428" stroke-miterlimit="10" stroke-linecap="round" stroke-linejoin="round"/>
<path d="M239.062 316.571C240.181 316.571 241.088 315.664 241.088 314.544C241.088 313.425 240.181 312.518 239.062 312.518C237.942 312.518 237.035 313.425 237.035 314.544C237.035 315.664 237.942 316.571 239.062 316.571Z" fill="white" stroke="#030712" stroke-width="0.851428" stroke-miterlimit="10" stroke-linecap="round" stroke-linejoin="round"/>
<path d="M452.722 127.384C453.841 127.384 454.748 126.477 454.748 125.357C454.748 124.238 453.841 123.331 452.722 123.331C451.603 123.331 450.695 124.238 450.695 125.357C450.695 126.477 451.603 127.384 452.722 127.384Z" fill="white" stroke="#030712" stroke-width="0.851428" stroke-miterlimit="10" stroke-linecap="round" stroke-linejoin="round"/>
<path d="M442.179 341.45C443.298 341.45 444.205 340.543 444.205 339.423C444.205 338.304 443.298 337.397 442.179 337.397C441.06 337.397 440.152 338.304 440.152 339.423C440.152 340.543 441.06 341.45 442.179 341.45Z" fill="white" stroke="#030712" stroke-width="0.851428" stroke-miterlimit="10" stroke-linecap="round" stroke-linejoin="round"/>
<path d="M74.9248 85.6124C76.044 85.6124 76.9512 84.7051 76.9512 83.586C76.9512 82.4668 76.044 81.5596 74.9248 81.5596C73.8057 81.5596 72.8984 82.4668 72.8984 83.586C72.8984 84.7051 73.8057 85.6124 74.9248 85.6124Z" fill="white" stroke="#030712" stroke-width="0.851428" stroke-miterlimit="10" stroke-linecap="round" stroke-linejoin="round"/>
<path d="M160.546 100.7C161.665 100.7 162.572 99.7925 162.572 98.6734C162.572 97.5542 161.665 96.647 160.546 96.647C159.427 96.647 158.52 97.5542 158.52 98.6734C158.52 99.7925 159.427 100.7 160.546 100.7Z" fill="white" stroke="#030712" stroke-width="0.851428" stroke-miterlimit="10" stroke-linecap="round" stroke-linejoin="round"/>
<path d="M81.1397 366.413C82.2588 366.413 83.1661 365.506 83.1661 364.387C83.1661 363.268 82.2588 362.36 81.1397 362.36C80.0205 362.36 79.1133 363.268 79.1133 364.387C79.1133 365.506 80.0205 366.413 81.1397 366.413Z" fill="white" stroke="#030712" stroke-width="0.851428" stroke-miterlimit="10" stroke-linecap="round" stroke-linejoin="round"/>
<path d="M367.577 66.4556C368.696 66.4556 369.604 65.5484 369.604 64.4292C369.604 63.3101 368.696 62.4028 367.577 62.4028C366.458 62.4028 365.551 63.3101 365.551 64.4292C365.551 65.5484 366.458 66.4556 367.577 66.4556Z" fill="white" stroke="#030712" stroke-width="0.851428" stroke-miterlimit="10" stroke-linecap="round" stroke-linejoin="round"/>
<path d="M192.181 337.056L117.801 341.926V327.861L192.181 337.056Z" fill="#030712" stroke="#030712" stroke-width="0.851428" stroke-miterlimit="10" stroke-linecap="round" stroke-linejoin="round"/>
<path d="M193.953 336.937H86.4008C83.3016 336.937 81.2412 334.331 81.8201 331.096L97.2821 243.433C97.844 240.215 100.824 237.592 103.923 237.592H211.476C214.575 237.592 216.635 240.198 216.056 243.433L200.594 331.096C200.032 334.331 197.052 336.937 193.953 336.937Z" fill="white" stroke="#030712" stroke-width="0.851428" stroke-miterlimit="10" stroke-linecap="round" stroke-linejoin="round"/>
<path d="M94.6767 313.387L106.086 248.627C106.205 247.98 106.92 247.452 107.687 247.452H203.949C204.715 247.452 205.243 247.98 205.141 248.627L193.732 313.387C193.613 314.034 192.897 314.562 192.131 314.562H95.8687C95.1024 314.545 94.5745 314.034 94.6767 313.387Z" fill="#030712" stroke="#030712" stroke-width="0.851428" stroke-miterlimit="10" stroke-linecap="round" stroke-linejoin="round"/>
<path d="M191.702 324.813H92.6641" stroke="#030712" stroke-width="0.851428" stroke-miterlimit="10" stroke-linecap="round" stroke-linejoin="round"/>
<path d="M128.491 326.801C129.795 325.607 130.038 323.751 129.035 322.655C128.032 321.559 126.161 321.639 124.857 322.833C123.553 324.027 123.31 325.883 124.313 326.979C125.316 328.075 127.187 327.995 128.491 326.801Z" fill="white" stroke="#030712" stroke-width="0.851428" stroke-miterlimit="10" stroke-linecap="round" stroke-linejoin="round"/>
<path d="M161.067 291.862C168.19 285.339 169.532 275.211 164.063 269.239C158.595 263.267 148.388 263.714 141.265 270.236C134.142 276.758 132.8 286.887 138.268 292.859C143.736 298.831 153.944 298.384 161.067 291.862Z" stroke="white" stroke-width="0.851428" stroke-miterlimit="10" stroke-linecap="round" stroke-linejoin="round"/>
<path d="M158.057 280.658C158.33 280.828 158.244 281.254 157.921 281.424L150.65 285.221L146.256 287.537C144.979 288.218 143.787 287.112 144.4 285.817C145.899 282.701 146.495 279.381 146.086 276.264C145.916 274.97 147.499 273.88 148.538 274.544L152.114 276.86L158.057 280.658Z" fill="white"/>
<path d="M293.535 308.142L415.272 312.331L415.408 284.098L292.309 300.428L293.535 308.142Z" fill="#030712" stroke="#030712" stroke-width="0.851428" stroke-miterlimit="10" stroke-linecap="round" stroke-linejoin="round"/>
<path d="M434.071 308.108H293.858C291.543 308.108 289.652 306.218 289.652 303.902V286.005C289.652 283.689 291.543 281.799 293.858 281.799H434.071C436.387 281.799 438.278 283.689 438.278 286.005V303.902C438.278 306.218 436.404 308.108 434.071 308.108Z" fill="white" stroke="#030712" stroke-width="0.851428" stroke-miterlimit="10" stroke-linecap="round" stroke-linejoin="round"/>
<path d="M296.207 303.748C294.998 303.748 294.027 303.118 294.027 302.352V287.571C294.027 286.805 294.998 286.175 296.207 286.175H403.93C405.139 286.175 406.109 286.805 406.109 287.571V302.352C406.109 303.118 405.139 303.748 403.93 303.748H296.207Z" fill="#030712" stroke="#030712" stroke-width="0.851428" stroke-miterlimit="10" stroke-linecap="round" stroke-linejoin="round"/>
<path d="M329.449 178.47L367.576 180.905V173.548L329.449 178.47Z" fill="#030712" stroke="#030712" stroke-width="0.851428" stroke-miterlimit="10" stroke-linecap="round" stroke-linejoin="round"/>
<path d="M414.117 178.487H329.945C326.982 178.487 324.138 175.983 323.593 172.918L308.829 89.1548C308.284 86.0726 310.243 83.5864 313.206 83.5864H397.378C400.341 83.5864 403.184 86.0896 403.729 89.1548L418.493 172.918C419.038 176 417.08 178.487 414.117 178.487Z" fill="white" stroke="#030712" stroke-width="0.851428" stroke-miterlimit="10" stroke-linecap="round" stroke-linejoin="round"/>
<path d="M317.566 91.2148H396.681L410.644 170.415H331.53L317.566 91.2148Z" fill="white" stroke="#030712" stroke-width="0.851428" stroke-miterlimit="10" stroke-linecap="round" stroke-linejoin="round"/>
<path d="M327.512 147.58C357.737 123.995 353.923 167.929 378.138 141.33C386.533 132.118 395.541 129.955 403.714 131.062L410.645 170.398H331.53L327.512 147.58Z" fill="#030712" stroke="#030712" stroke-width="0.851428" stroke-miterlimit="10" stroke-linecap="round" stroke-linejoin="round"/>
<path d="M375.148 124.022C378.247 120.638 377.487 114.897 373.45 111.201C369.414 107.505 363.629 107.252 360.53 110.637C357.43 114.022 358.19 119.762 362.227 123.458C366.264 127.155 372.049 127.407 375.148 124.022Z" fill="#030712" stroke="#030712" stroke-width="0.851428" stroke-miterlimit="10" stroke-linecap="round" stroke-linejoin="round"/>
<path d="M207.391 407.572L296.246 401.748L247.595 395.737C247.527 396.946 247.476 398.155 247.476 399.381C247.476 400.045 247.493 400.692 247.51 401.339C242.844 399.228 237.667 398.07 232.218 398.07C222.682 398.07 213.981 401.663 207.391 407.572Z" fill="#030712" stroke="#030712" stroke-width="0.851428" stroke-miterlimit="10" stroke-linecap="round" stroke-linejoin="round"/>
<path d="M295.275 385.043C293.742 385.043 292.278 385.4 291.001 386.048C291.018 385.707 291.035 385.366 291.035 385.043C291.035 374.485 282.486 365.937 271.929 365.937C270.856 365.937 269.8 366.022 268.778 366.192C265.117 353.182 253.163 343.646 238.979 343.646C227.212 343.646 216.978 350.22 211.733 359.892C208.14 357.763 203.951 356.537 199.489 356.537C186.241 356.537 175.496 367.282 175.496 380.53C175.496 389.743 180.673 397.729 188.285 401.765H210.711H224.164H253.827H262.699H281.158H288.957H301.575C303.193 400.335 304.334 398.359 304.692 396.128C304.777 395.635 304.811 395.124 304.811 394.596C304.828 389.317 300.554 385.043 295.275 385.043Z" fill="white" stroke="#030712" stroke-width="0.851428" stroke-miterlimit="10" stroke-linecap="round" stroke-linejoin="round"/>
<rect x="172" y="352" width="76" height="32" rx="16" fill="#4352D1"/>
<path d="M184.705 363.875V362.364H193.71V363.875H190.08V374H188.33V363.875H184.705ZM197.794 374.176C196.976 374.176 196.262 373.989 195.652 373.614C195.043 373.239 194.569 372.714 194.232 372.04C193.895 371.366 193.726 370.578 193.726 369.676C193.726 368.771 193.895 367.979 194.232 367.301C194.569 366.623 195.043 366.097 195.652 365.722C196.262 365.347 196.976 365.159 197.794 365.159C198.613 365.159 199.327 365.347 199.936 365.722C200.546 366.097 201.02 366.623 201.357 367.301C201.694 367.979 201.863 368.771 201.863 369.676C201.863 370.578 201.694 371.366 201.357 372.04C201.02 372.714 200.546 373.239 199.936 373.614C199.327 373.989 198.613 374.176 197.794 374.176ZM197.8 372.75C198.33 372.75 198.77 372.61 199.118 372.33C199.467 372.049 199.724 371.676 199.891 371.21C200.061 370.744 200.147 370.231 200.147 369.67C200.147 369.114 200.061 368.602 199.891 368.136C199.724 367.667 199.467 367.29 199.118 367.006C198.77 366.722 198.33 366.58 197.8 366.58C197.266 366.58 196.823 366.722 196.471 367.006C196.122 367.29 195.863 367.667 195.692 368.136C195.525 368.602 195.442 369.114 195.442 369.67C195.442 370.231 195.525 370.744 195.692 371.21C195.863 371.676 196.122 372.049 196.471 372.33C196.823 372.61 197.266 372.75 197.8 372.75ZM203.579 374V365.273H205.21V366.693H205.318C205.499 366.212 205.797 365.837 206.21 365.568C206.622 365.295 207.117 365.159 207.693 365.159C208.276 365.159 208.765 365.295 209.158 365.568C209.556 365.841 209.85 366.216 210.039 366.693H210.13C210.338 366.227 210.67 365.856 211.124 365.58C211.579 365.299 212.121 365.159 212.749 365.159C213.541 365.159 214.187 365.407 214.687 365.903C215.191 366.4 215.443 367.148 215.443 368.148V374H213.744V368.307C213.744 367.716 213.583 367.288 213.261 367.023C212.939 366.758 212.554 366.625 212.107 366.625C211.554 366.625 211.124 366.795 210.818 367.136C210.511 367.473 210.357 367.907 210.357 368.438V374H208.664V368.199C208.664 367.725 208.516 367.345 208.221 367.057C207.926 366.769 207.541 366.625 207.068 366.625C206.746 366.625 206.448 366.71 206.176 366.881C205.907 367.047 205.689 367.28 205.522 367.58C205.359 367.879 205.278 368.225 205.278 368.619V374H203.579ZM221.73 374V362.364H225.992C226.817 362.364 227.501 362.5 228.043 362.773C228.584 363.042 228.99 363.407 229.259 363.869C229.528 364.328 229.662 364.845 229.662 365.42C229.662 365.905 229.573 366.314 229.395 366.648C229.217 366.977 228.978 367.242 228.679 367.443C228.384 367.64 228.058 367.784 227.702 367.875V367.989C228.088 368.008 228.465 368.133 228.833 368.364C229.204 368.591 229.511 368.915 229.753 369.335C229.995 369.756 230.117 370.267 230.117 370.869C230.117 371.464 229.976 371.998 229.696 372.472C229.42 372.941 228.992 373.314 228.412 373.591C227.833 373.864 227.092 374 226.191 374H221.73ZM223.486 372.494H226.02C226.861 372.494 227.463 372.331 227.827 372.006C228.191 371.68 228.372 371.273 228.372 370.784C228.372 370.417 228.28 370.08 228.094 369.773C227.908 369.466 227.643 369.222 227.298 369.04C226.958 368.858 226.552 368.767 226.083 368.767H223.486V372.494ZM223.486 367.398H225.838C226.232 367.398 226.586 367.322 226.901 367.17C227.219 367.019 227.471 366.807 227.656 366.534C227.846 366.258 227.941 365.932 227.941 365.557C227.941 365.076 227.772 364.672 227.435 364.347C227.098 364.021 226.581 363.858 225.884 363.858H223.486V367.398ZM233.002 374.108C232.691 374.108 232.424 373.998 232.201 373.778C231.977 373.555 231.866 373.286 231.866 372.972C231.866 372.661 231.977 372.396 232.201 372.176C232.424 371.953 232.691 371.841 233.002 371.841C233.313 371.841 233.58 371.953 233.803 372.176C234.027 372.396 234.138 372.661 234.138 372.972C234.138 373.18 234.085 373.371 233.979 373.545C233.877 373.716 233.741 373.852 233.57 373.955C233.4 374.057 233.21 374.108 233.002 374.108Z" fill="white"/>
<rect x="38" y="121" width="78" height="32" rx="16" fill="#7AD089"/>
<path d="M51.2784 143V131.364H55.5398C56.3655 131.364 57.0492 131.5 57.5909 131.773C58.1326 132.042 58.5379 132.407 58.8068 132.869C59.0758 133.328 59.2102 133.845 59.2102 134.42C59.2102 134.905 59.1212 135.314 58.9432 135.648C58.7652 135.977 58.5265 136.242 58.2273 136.443C57.9318 136.64 57.6061 136.784 57.25 136.875V136.989C57.6364 137.008 58.0133 137.133 58.3807 137.364C58.7519 137.591 59.0587 137.915 59.3011 138.335C59.5436 138.756 59.6648 139.267 59.6648 139.869C59.6648 140.464 59.5246 140.998 59.2443 141.472C58.9678 141.941 58.5398 142.314 57.9602 142.591C57.3807 142.864 56.6402 143 55.7386 143H51.2784ZM53.0341 141.494H55.5682C56.4091 141.494 57.0114 141.331 57.375 141.006C57.7386 140.68 57.9205 140.273 57.9205 139.784C57.9205 139.417 57.8277 139.08 57.642 138.773C57.4564 138.466 57.1913 138.222 56.8466 138.04C56.5057 137.858 56.1004 137.767 55.6307 137.767H53.0341V141.494ZM53.0341 136.398H55.3864C55.7803 136.398 56.1345 136.322 56.4489 136.17C56.767 136.019 57.0189 135.807 57.2045 135.534C57.3939 135.258 57.4886 134.932 57.4886 134.557C57.4886 134.076 57.3201 133.672 56.983 133.347C56.6458 133.021 56.1288 132.858 55.4318 132.858H53.0341V136.398ZM63.9706 143.193C63.4175 143.193 62.9175 143.091 62.4706 142.886C62.0236 142.678 61.6694 142.377 61.4081 141.983C61.1505 141.589 61.0217 141.106 61.0217 140.534C61.0217 140.042 61.1164 139.636 61.3058 139.318C61.4952 139 61.7509 138.748 62.0728 138.562C62.3948 138.377 62.7547 138.237 63.1524 138.142C63.5501 138.047 63.9554 137.975 64.3683 137.926C64.891 137.866 65.3153 137.816 65.641 137.778C65.9668 137.737 66.2035 137.67 66.3512 137.58C66.499 137.489 66.5728 137.341 66.5728 137.136V137.097C66.5728 136.6 66.4327 136.216 66.1524 135.943C65.8759 135.67 65.463 135.534 64.9137 135.534C64.3418 135.534 63.891 135.661 63.5615 135.915C63.2357 136.165 63.0103 136.443 62.8853 136.75L61.2887 136.386C61.4781 135.856 61.7547 135.428 62.1183 135.102C62.4857 134.773 62.9081 134.534 63.3853 134.386C63.8626 134.235 64.3645 134.159 64.891 134.159C65.2395 134.159 65.6088 134.201 65.999 134.284C66.3929 134.364 66.7603 134.511 67.1012 134.727C67.4459 134.943 67.7281 135.252 67.9478 135.653C68.1675 136.051 68.2774 136.568 68.2774 137.205V143H66.6183V141.807H66.5501C66.4403 142.027 66.2755 142.242 66.0558 142.455C65.8361 142.667 65.5539 142.843 65.2092 142.983C64.8645 143.123 64.4516 143.193 63.9706 143.193ZM64.3399 141.83C64.8096 141.83 65.2111 141.737 65.5444 141.551C65.8816 141.366 66.1372 141.123 66.3115 140.824C66.4895 140.521 66.5785 140.197 66.5785 139.852V138.727C66.5179 138.788 66.4005 138.845 66.2262 138.898C66.0558 138.947 65.8607 138.991 65.641 139.028C65.4213 139.062 65.2073 139.095 64.999 139.125C64.7906 139.152 64.6164 139.174 64.4762 139.193C64.1467 139.235 63.8456 139.305 63.5728 139.403C63.3039 139.502 63.088 139.644 62.9251 139.83C62.766 140.011 62.6865 140.254 62.6865 140.557C62.6865 140.977 62.8418 141.295 63.1524 141.511C63.463 141.723 63.8588 141.83 64.3399 141.83ZM74.434 134.273V135.636H69.667V134.273H74.434ZM70.9454 132.182H72.6443V140.438C72.6443 140.767 72.6935 141.015 72.792 141.182C72.8905 141.345 73.0174 141.456 73.1727 141.517C73.3318 141.574 73.5041 141.602 73.6897 141.602C73.8261 141.602 73.9454 141.593 74.0477 141.574C74.1499 141.555 74.2295 141.54 74.2863 141.528L74.5931 142.932C74.4946 142.97 74.3545 143.008 74.1727 143.045C73.9909 143.087 73.7636 143.11 73.4909 143.114C73.0439 143.121 72.6272 143.042 72.2409 142.875C71.8545 142.708 71.542 142.451 71.3034 142.102C71.0647 141.754 70.9454 141.316 70.9454 140.79V132.182ZM81.6617 139.381V134.273H83.3662V143H81.6958V141.489H81.6049C81.4041 141.955 81.0822 142.343 80.639 142.653C80.1996 142.96 79.6522 143.114 78.9969 143.114C78.4363 143.114 77.9401 142.991 77.5083 142.744C77.0803 142.494 76.7431 142.125 76.4969 141.636C76.2545 141.148 76.1333 140.544 76.1333 139.824V134.273H77.8322V139.619C77.8322 140.214 77.9969 140.687 78.3265 141.04C78.656 141.392 79.0841 141.568 79.6106 141.568C79.9287 141.568 80.245 141.489 80.5594 141.33C80.8776 141.17 81.1409 140.93 81.3492 140.608C81.5613 140.286 81.6655 139.877 81.6617 139.381ZM89.6597 143V131.364H91.4153V136.92H91.5574L96.4381 131.364H98.6483L93.9551 136.602L98.6653 143H96.5517L92.7903 137.801L91.4153 139.381V143H89.6597ZM101.088 143.108C100.777 143.108 100.51 142.998 100.286 142.778C100.063 142.555 99.9512 142.286 99.9512 141.972C99.9512 141.661 100.063 141.396 100.286 141.176C100.51 140.953 100.777 140.841 101.088 140.841C101.398 140.841 101.665 140.953 101.889 141.176C102.112 141.396 102.224 141.661 102.224 141.972C102.224 142.18 102.171 142.371 102.065 142.545C101.963 142.716 101.826 142.852 101.656 142.955C101.485 143.057 101.296 143.108 101.088 143.108Z" fill="black"/>
<rect x="339" y="170" width="83" height="32" rx="16" fill="#F8D254"/>
<path d="M352.278 192V180.364H356.426C357.331 180.364 358.081 180.528 358.676 180.858C359.271 181.187 359.716 181.638 360.011 182.21C360.307 182.778 360.455 183.419 360.455 184.131C360.455 184.847 360.305 185.491 360.006 186.062C359.71 186.631 359.263 187.081 358.665 187.415C358.07 187.744 357.322 187.909 356.42 187.909H353.568V186.42H356.261C356.833 186.42 357.297 186.322 357.653 186.125C358.009 185.924 358.271 185.652 358.438 185.307C358.604 184.962 358.688 184.57 358.688 184.131C358.688 183.691 358.604 183.301 358.438 182.96C358.271 182.619 358.008 182.352 357.648 182.159C357.292 181.966 356.822 181.869 356.239 181.869H354.034V192H352.278ZM365.848 192.176C364.989 192.176 364.248 191.992 363.627 191.625C363.009 191.254 362.532 190.733 362.195 190.062C361.862 189.388 361.695 188.598 361.695 187.693C361.695 186.799 361.862 186.011 362.195 185.33C362.532 184.648 363.002 184.116 363.604 183.733C364.21 183.35 364.918 183.159 365.729 183.159C366.222 183.159 366.699 183.241 367.161 183.403C367.623 183.566 368.038 183.822 368.405 184.17C368.773 184.519 369.062 184.972 369.275 185.528C369.487 186.081 369.593 186.754 369.593 187.545V188.148H362.655V186.875H367.928C367.928 186.428 367.837 186.032 367.655 185.688C367.473 185.339 367.218 185.064 366.888 184.864C366.562 184.663 366.18 184.562 365.74 184.562C365.263 184.562 364.847 184.68 364.49 184.915C364.138 185.146 363.865 185.449 363.672 185.824C363.483 186.195 363.388 186.598 363.388 187.034V188.028C363.388 188.612 363.49 189.108 363.695 189.517C363.903 189.926 364.193 190.239 364.564 190.455C364.936 190.667 365.369 190.773 365.865 190.773C366.187 190.773 366.481 190.727 366.746 190.636C367.011 190.542 367.24 190.402 367.434 190.216C367.627 190.03 367.775 189.801 367.877 189.528L369.485 189.818C369.356 190.292 369.125 190.706 368.792 191.062C368.462 191.415 368.047 191.689 367.547 191.886C367.051 192.08 366.485 192.176 365.848 192.176ZM375.372 183.273V184.636H370.604V183.273H375.372ZM371.883 181.182H373.582V189.438C373.582 189.767 373.631 190.015 373.729 190.182C373.828 190.345 373.955 190.456 374.11 190.517C374.269 190.574 374.442 190.602 374.627 190.602C374.764 190.602 374.883 190.593 374.985 190.574C375.087 190.555 375.167 190.54 375.224 190.528L375.531 191.932C375.432 191.97 375.292 192.008 375.11 192.045C374.928 192.087 374.701 192.11 374.428 192.114C373.981 192.121 373.565 192.042 373.178 191.875C372.792 191.708 372.479 191.451 372.241 191.102C372.002 190.754 371.883 190.316 371.883 189.79V181.182ZM380.738 192.176C379.879 192.176 379.138 191.992 378.517 191.625C377.899 191.254 377.422 190.733 377.085 190.062C376.752 189.388 376.585 188.598 376.585 187.693C376.585 186.799 376.752 186.011 377.085 185.33C377.422 184.648 377.892 184.116 378.494 183.733C379.1 183.35 379.808 183.159 380.619 183.159C381.112 183.159 381.589 183.241 382.051 183.403C382.513 183.566 382.928 183.822 383.295 184.17C383.663 184.519 383.952 184.972 384.165 185.528C384.377 186.081 384.483 186.754 384.483 187.545V188.148H377.545V186.875H382.818C382.818 186.428 382.727 186.032 382.545 185.688C382.363 185.339 382.108 185.064 381.778 184.864C381.452 184.663 381.07 184.562 380.63 184.562C380.153 184.562 379.737 184.68 379.38 184.915C379.028 185.146 378.755 185.449 378.562 185.824C378.373 186.195 378.278 186.598 378.278 187.034V188.028C378.278 188.612 378.38 189.108 378.585 189.517C378.793 189.926 379.083 190.239 379.454 190.455C379.826 190.667 380.259 190.773 380.755 190.773C381.077 190.773 381.371 190.727 381.636 190.636C381.901 190.542 382.13 190.402 382.324 190.216C382.517 190.03 382.665 189.801 382.767 189.528L384.375 189.818C384.246 190.292 384.015 190.706 383.682 191.062C383.352 191.415 382.937 191.689 382.437 191.886C381.941 192.08 381.375 192.176 380.738 192.176ZM386.188 192V183.273H387.83V184.659H387.921C388.08 184.189 388.36 183.82 388.762 183.551C389.167 183.278 389.625 183.142 390.137 183.142C390.243 183.142 390.368 183.146 390.512 183.153C390.659 183.161 390.775 183.17 390.858 183.182V184.807C390.79 184.788 390.669 184.767 390.494 184.744C390.32 184.718 390.146 184.705 389.972 184.705C389.57 184.705 389.212 184.79 388.898 184.96C388.587 185.127 388.341 185.36 388.159 185.659C387.977 185.955 387.887 186.292 387.887 186.67V192H386.188ZM396.339 192V180.364H400.6C401.426 180.364 402.11 180.5 402.652 180.773C403.193 181.042 403.599 181.407 403.867 181.869C404.136 182.328 404.271 182.845 404.271 183.42C404.271 183.905 404.182 184.314 404.004 184.648C403.826 184.977 403.587 185.242 403.288 185.443C402.992 185.64 402.667 185.784 402.311 185.875V185.989C402.697 186.008 403.074 186.133 403.441 186.364C403.813 186.591 404.119 186.915 404.362 187.335C404.604 187.756 404.725 188.267 404.725 188.869C404.725 189.464 404.585 189.998 404.305 190.472C404.028 190.941 403.6 191.314 403.021 191.591C402.441 191.864 401.701 192 400.799 192H396.339ZM398.095 190.494H400.629C401.47 190.494 402.072 190.331 402.436 190.006C402.799 189.68 402.981 189.273 402.981 188.784C402.981 188.417 402.888 188.08 402.703 187.773C402.517 187.466 402.252 187.222 401.907 187.04C401.566 186.858 401.161 186.767 400.691 186.767H398.095V190.494ZM398.095 185.398H400.447C400.841 185.398 401.195 185.322 401.509 185.17C401.828 185.019 402.08 184.807 402.265 184.534C402.455 184.258 402.549 183.932 402.549 183.557C402.549 183.076 402.381 182.672 402.044 182.347C401.706 182.021 401.189 181.858 400.492 181.858H398.095V185.398ZM407.611 192.108C407.3 192.108 407.033 191.998 406.81 191.778C406.586 191.555 406.474 191.286 406.474 190.972C406.474 190.661 406.586 190.396 406.81 190.176C407.033 189.953 407.3 189.841 407.611 189.841C407.921 189.841 408.188 189.953 408.412 190.176C408.635 190.396 408.747 190.661 408.747 190.972C408.747 191.18 408.694 191.371 408.588 191.545C408.486 191.716 408.349 191.852 408.179 191.955C408.008 192.057 407.819 192.108 407.611 192.108Z" fill="black"/>
<rect x="431" y="268" width="69" height="32" rx="16" fill="#E44F5E"/>
<path d="M446.034 278.364V290H444.278V278.364H446.034ZM448.275 278.364H449.973V287.614C449.973 287.989 450.021 288.254 450.115 288.409C450.214 288.564 450.4 288.638 450.672 288.631C450.82 288.627 450.93 288.617 451.002 288.602C451.078 288.587 451.146 288.57 451.206 288.551L451.513 289.909C451.396 289.943 451.246 289.975 451.064 290.006C450.886 290.04 450.684 290.059 450.456 290.062C449.722 290.074 449.174 289.9 448.814 289.54C448.454 289.18 448.275 288.655 448.275 287.966V278.364ZM453.528 293.273C453.274 293.273 453.043 293.252 452.835 293.21C452.626 293.172 452.471 293.131 452.369 293.085L452.778 291.693C453.088 291.777 453.365 291.813 453.607 291.801C453.85 291.79 454.064 291.699 454.249 291.528C454.439 291.358 454.605 291.08 454.749 290.693L454.96 290.114L451.766 281.273H453.585L455.795 288.045H455.886L458.096 281.273H459.92L456.323 291.165C456.157 291.619 455.944 292.004 455.687 292.318C455.429 292.636 455.122 292.875 454.766 293.034C454.41 293.193 453.997 293.273 453.528 293.273ZM463.626 290.193C463.073 290.193 462.573 290.091 462.126 289.886C461.679 289.678 461.325 289.377 461.064 288.983C460.806 288.589 460.677 288.106 460.677 287.534C460.677 287.042 460.772 286.636 460.961 286.318C461.151 286 461.406 285.748 461.728 285.562C462.05 285.377 462.41 285.237 462.808 285.142C463.206 285.047 463.611 284.975 464.024 284.926C464.547 284.866 464.971 284.816 465.297 284.778C465.622 284.737 465.859 284.67 466.007 284.58C466.155 284.489 466.228 284.341 466.228 284.136V284.097C466.228 283.6 466.088 283.216 465.808 282.943C465.531 282.67 465.119 282.534 464.569 282.534C463.997 282.534 463.547 282.661 463.217 282.915C462.891 283.165 462.666 283.443 462.541 283.75L460.944 283.386C461.134 282.856 461.41 282.428 461.774 282.102C462.141 281.773 462.564 281.534 463.041 281.386C463.518 281.235 464.02 281.159 464.547 281.159C464.895 281.159 465.264 281.201 465.655 281.284C466.049 281.364 466.416 281.511 466.757 281.727C467.102 281.943 467.384 282.252 467.603 282.653C467.823 283.051 467.933 283.568 467.933 284.205V290H466.274V288.807H466.206C466.096 289.027 465.931 289.242 465.711 289.455C465.492 289.667 465.21 289.843 464.865 289.983C464.52 290.123 464.107 290.193 463.626 290.193ZM463.996 288.83C464.465 288.83 464.867 288.737 465.2 288.551C465.537 288.366 465.793 288.123 465.967 287.824C466.145 287.521 466.234 287.197 466.234 286.852V285.727C466.174 285.788 466.056 285.845 465.882 285.898C465.711 285.947 465.516 285.991 465.297 286.028C465.077 286.062 464.863 286.095 464.655 286.125C464.446 286.152 464.272 286.174 464.132 286.193C463.802 286.235 463.501 286.305 463.228 286.403C462.96 286.502 462.744 286.644 462.581 286.83C462.422 287.011 462.342 287.254 462.342 287.557C462.342 287.977 462.497 288.295 462.808 288.511C463.119 288.723 463.514 288.83 463.996 288.83ZM480.553 281.42C480.493 280.883 480.243 280.466 479.803 280.17C479.364 279.871 478.811 279.722 478.144 279.722C477.667 279.722 477.254 279.797 476.905 279.949C476.557 280.097 476.286 280.301 476.093 280.562C475.904 280.82 475.809 281.114 475.809 281.443C475.809 281.72 475.873 281.958 476.002 282.159C476.135 282.36 476.307 282.528 476.519 282.665C476.735 282.797 476.966 282.909 477.212 283C477.458 283.087 477.695 283.159 477.922 283.216L479.059 283.511C479.43 283.602 479.811 283.725 480.201 283.881C480.591 284.036 480.953 284.241 481.286 284.494C481.619 284.748 481.888 285.062 482.093 285.438C482.301 285.812 482.405 286.261 482.405 286.784C482.405 287.443 482.235 288.028 481.894 288.54C481.557 289.051 481.066 289.455 480.422 289.75C479.782 290.045 479.008 290.193 478.099 290.193C477.227 290.193 476.474 290.055 475.837 289.778C475.201 289.502 474.703 289.11 474.343 288.602C473.983 288.091 473.784 287.485 473.746 286.784H475.508C475.542 287.205 475.678 287.555 475.917 287.835C476.159 288.112 476.468 288.318 476.843 288.455C477.222 288.587 477.636 288.653 478.087 288.653C478.583 288.653 479.025 288.576 479.411 288.42C479.801 288.261 480.108 288.042 480.332 287.761C480.555 287.477 480.667 287.146 480.667 286.767C480.667 286.422 480.568 286.14 480.371 285.92C480.178 285.701 479.915 285.519 479.582 285.375C479.252 285.231 478.879 285.104 478.462 284.994L477.087 284.619C476.155 284.366 475.417 283.992 474.871 283.5C474.33 283.008 474.059 282.356 474.059 281.545C474.059 280.875 474.241 280.29 474.604 279.79C474.968 279.29 475.46 278.902 476.082 278.625C476.703 278.345 477.404 278.205 478.184 278.205C478.972 278.205 479.667 278.343 480.269 278.619C480.875 278.896 481.352 279.277 481.701 279.761C482.049 280.242 482.231 280.795 482.246 281.42H480.553ZM485.306 290.108C484.996 290.108 484.729 289.998 484.505 289.778C484.282 289.555 484.17 289.286 484.17 288.972C484.17 288.661 484.282 288.396 484.505 288.176C484.729 287.953 484.996 287.841 485.306 287.841C485.617 287.841 485.884 287.953 486.107 288.176C486.331 288.396 486.443 288.661 486.443 288.972C486.443 289.18 486.39 289.371 486.284 289.545C486.181 289.716 486.045 289.852 485.875 289.955C485.704 290.057 485.515 290.108 485.306 290.108Z" fill="white"/>
</svg>
